# xmcd CD database file
#
# Track frame offsets:
#	150
#	1687
#	19528
#	38507
#	59657
#	69182
#	81962
#	96698
#	113305
#	134042
#	155447
#	176581
#	214226
#
# Disc length: 3200 seconds
#
# Revision: 5
# Processed by: cddbd v1.5.2PL0 Copyright (c) Steve Scherf et al.
# Submitted via: CDex 1.70beta2
#
DISCID=a50c7e0d
DTITLE=Skilda - Spas
DYEAR=2008
DGENRE=New Age
TTITLE0=Space by Skilda
TTITLE1=An nighean dubh
TTITLE2=O i og i o
TTITLE3=Lostmarc'h
TTITLE4=Ar vorgaoulenn hag al loar
TTITLE5=I see the isle
TTITLE6=Clach Mhic Leoid
TTITLE7=He Mandu
TTITLE8=Stourm ar poc'haned glas
TTITLE9=Seoni ann an uisge
TTITLE10=Lanmara
TTITLE11=An bana-ghaisgeach
TTITLE12=Bonus
EXTD=YEAR: 2008
EXTT0=
EXTT1=
EXTT2=
EXTT3=
EXTT4=
EXTT5=
EXTT6=
EXTT7=
EXTT8=
EXTT9=
EXTT10=
EXTT11=
EXTT12=
PLAYORDER=
